<svg width="354.318359" height="17.182617" viewBox="0 0 354.318 17.1826" fill="none" xmlns="http://www.w3.org/2000/svg" xmlns:xlink="http://www.w3.org/1999/xlink">
	<desc>
			Created with Pixso.
	</desc>
	<defs/>
	<g opacity="0.400000">
		<path id="Публикации только с риск-факторами" d="M9.76416 0.408691L-0.000488281 0.408691L-0.000488281 13.5L1.58154 13.5L1.58154 1.81494L8.17773 1.81494L8.17773 13.5L9.76416 13.5L9.76416 0.408691ZM14.2664 17.1826C15.6287 17.1826 16.5867 16.4575 17.158 14.9326L21.324 3.68262L19.6893 3.68262L16.9779 11.5049L16.8768 11.5049L14.1654 3.68262L12.5306 3.68262L16.1605 13.5527L15.8792 14.3174C15.3299 15.8159 14.6531 15.9565 13.5501 15.6753L13.1678 17.0024C13.3216 17.0815 13.7567 17.1826 14.2664 17.1826ZM31.1441 0C30.6651 0.404297 29.9488 0.404297 28.9468 0.395508C28.6216 0.395508 28.2613 0.395508 27.8746 0.408691C24.8819 0.487793 23.3965 2.75977 23.3965 7.13232L23.3965 8.18262C23.3965 11.8125 25.1631 13.7065 27.7955 13.7065C30.4234 13.7065 32.168 11.7993 32.168 8.71875C32.168 5.625 30.397 3.99023 28.1031 3.99023C26.754 3.99023 25.4971 4.55273 24.8292 5.77881L24.7017 5.77881C24.9083 3.24756 25.8531 1.89404 27.8965 1.81494C29.7159 1.74023 31.0167 1.78857 31.9131 0.918457L31.1441 0ZM27.7955 12.3486C26.0069 12.3486 24.9083 10.916 24.9083 8.71875C24.939 6.56982 26.0201 5.34375 27.7691 5.34375C29.5665 5.34375 30.6607 6.56982 30.6607 8.71875C30.6607 10.9292 29.5752 12.3486 27.7955 12.3486ZM34.1386 13.5L34.6528 13.5C36.8237 13.5 37.4521 11.8125 37.5927 8.59131L37.7466 5.08887L41.3501 5.08887L41.3501 13.5L42.8574 13.5L42.8574 3.68262L36.3139 3.68262L36.1338 8.02881C36.0063 11.3247 35.6723 12.0938 34.499 12.0938L34.1386 12.0938L34.1386 13.5ZM47.6669 11.2764L47.6669 3.68262L46.1596 3.68262L46.1596 13.5L47.9262 13.5L52.6283 5.90625L52.6283 13.5L54.1356 13.5L54.1356 3.68262L52.3998 3.68262L47.6669 11.2764ZM57.4382 13.5L58.9455 13.5L58.9455 9.35596L60.3034 9.35596L63.5246 13.5L65.467 13.5L61.4548 8.41113L65.4143 3.68262L63.4719 3.68262L59.9431 7.94971L58.9455 7.94971L58.9455 3.68262L57.4382 3.68262L57.4382 13.5ZM70.5346 13.7285C72.244 13.7285 73.1405 12.8101 73.4481 12.1685L73.5229 12.1685L73.5229 13.5L75.0346 13.5L75.0346 7.03125C75.0346 3.91113 72.6571 3.55518 71.4003 3.55518C69.9193 3.55518 68.2318 4.06494 67.4628 5.85352L68.8954 6.36768C69.2294 5.65137 70.016 4.88232 71.453 4.88232C72.8417 4.88232 73.5229 5.62061 73.5229 6.87744L73.5229 6.93018C73.5229 7.65967 72.7846 7.59375 70.9916 7.82227C69.1723 8.05957 67.1815 8.46387 67.1815 10.7139C67.1815 12.6299 68.6669 13.7285 70.5346 13.7285ZM70.7631 12.375C69.5634 12.375 68.6933 11.8389 68.6933 10.7886C68.6933 9.63721 69.7392 9.28125 70.9169 9.12744C71.5541 9.05273 73.268 8.87256 73.5229 8.56494L73.5229 9.94482C73.5229 11.1753 72.5517 12.375 70.7631 12.375ZM86.0547 3.68262L84.5474 3.68262L84.5474 12.0938L79.8409 12.0938L79.8409 3.68262L78.3335 3.68262L78.3335 13.5L85.9273 13.5L85.9273 16.6685L87.4346 16.6685L87.4346 12.0938L86.0547 12.0938L86.0547 3.68262ZM91.8098 11.2764L91.8098 3.68262L90.3025 3.68262L90.3025 13.5L92.0691 13.5L96.7713 5.90625L96.7713 13.5L98.2786 13.5L98.2786 3.68262L96.5427 3.68262L91.8098 11.2764ZM103.088 11.2764L103.088 3.68262L101.581 3.68262L101.581 13.5L103.348 13.5L108.05 5.90625L108.05 13.5L109.557 13.5L109.557 3.68262L107.821 3.68262L103.088 11.2764ZM117.9 5.08887L121.147 5.08887L121.147 13.5L122.655 13.5L122.655 5.08887L125.876 5.08887L125.876 3.68262L117.9 3.68262L117.9 5.08887ZM132.095 13.7065C134.753 13.7065 136.542 11.6851 136.542 8.64404C136.542 5.57227 134.753 3.55518 132.095 3.55518C129.436 3.55518 127.643 5.57227 127.643 8.64404C127.643 11.6851 129.436 13.7065 132.095 13.7065ZM132.095 12.3486C130.073 12.3486 129.155 10.6128 129.155 8.64404C129.155 6.67529 130.073 4.90869 132.095 4.90869C134.112 4.90869 135.035 6.67529 135.035 8.64404C135.035 10.6128 134.112 12.3486 132.095 12.3486ZM138.513 13.5L139.027 13.5C141.198 13.5 141.827 11.8125 141.967 8.59131L142.121 5.08887L145.725 5.08887L145.725 13.5L147.232 13.5L147.232 3.68262L140.688 3.68262L140.508 8.02881C140.381 11.3247 140.047 12.0938 138.873 12.0938L138.513 12.0938L138.513 13.5ZM152.041 7.23779L152.041 3.68262L150.534 3.68262L150.534 13.5L154.652 13.5C156.954 13.5 158.207 12.0938 158.207 10.3315C158.207 8.53857 156.954 7.23779 154.652 7.23779L152.041 7.23779ZM152.041 8.64404L154.652 8.64404C155.847 8.64404 156.695 9.36914 156.695 10.4062C156.695 11.395 155.847 12.0938 154.652 12.0938L152.041 12.0938L152.041 8.64404ZM161.046 13.5L162.553 13.5L162.553 9.35596L163.911 9.35596L167.132 13.5L169.074 13.5L165.062 8.41113L169.022 3.68262L167.079 3.68262L163.55 7.94971L162.553 7.94971L162.553 3.68262L161.046 3.68262L161.046 13.5ZM174.831 13.7065C177.49 13.7065 179.279 11.6851 179.279 8.64404C179.279 5.57227 177.49 3.55518 174.831 3.55518C172.173 3.55518 170.38 5.57227 170.38 8.64404C170.38 11.6851 172.173 13.7065 174.831 13.7065ZM174.831 12.3486C172.81 12.3486 171.892 10.6128 171.892 8.64404C171.892 6.67529 172.81 4.90869 174.831 4.90869C176.849 4.90869 177.771 6.67529 177.771 8.64404C177.771 10.6128 176.849 12.3486 174.831 12.3486ZM191.713 13.7065C193.883 13.7065 195.316 12.375 195.571 10.6348L194.064 10.6348C193.782 11.7114 192.886 12.3486 191.713 12.3486C189.924 12.3486 188.773 10.8677 188.773 8.59131C188.773 6.36768 189.946 4.90869 191.713 4.90869C193.04 4.90869 193.835 5.72607 194.064 6.62256L195.571 6.62256C195.316 4.78125 193.756 3.55518 191.686 3.55518C189.028 3.55518 187.261 5.65137 187.261 8.64404C187.261 11.584 188.948 13.7065 191.713 13.7065ZM203.913 17.1826L205.42 17.1826L205.42 11.9927L205.552 11.9927C205.882 12.5288 206.523 13.7065 208.413 13.7065C210.87 13.7065 212.584 11.7378 212.584 8.61768C212.584 5.52393 210.87 3.55518 208.387 3.55518C206.471 3.55518 205.882 4.72852 205.552 5.24268L205.372 5.24268L205.372 3.68262L203.913 3.68262L203.913 17.1826ZM205.398 8.59131C205.398 6.39404 206.37 4.90869 208.211 4.90869C210.127 4.90869 211.072 6.52148 211.072 8.59131C211.072 10.6875 210.101 12.3486 208.211 12.3486C206.396 12.3486 205.398 10.8149 205.398 8.59131ZM216.929 11.2764L216.929 3.68262L215.422 3.68262L215.422 13.5L217.188 13.5L221.891 5.90625L221.891 13.5L223.398 13.5L223.398 3.68262L221.662 3.68262L216.929 11.2764ZM230.691 13.7065C232.862 13.7065 234.294 12.375 234.549 10.6348L233.042 10.6348C232.761 11.7114 231.864 12.3486 230.691 12.3486C228.902 12.3486 227.751 10.8677 227.751 8.59131C227.751 6.36768 228.924 4.90869 230.691 4.90869C232.018 4.90869 232.813 5.72607 233.042 6.62256L234.549 6.62256C234.294 4.78125 232.734 3.55518 230.664 3.55518C228.006 3.55518 226.239 5.65137 226.239 8.64404C226.239 11.584 227.927 13.7065 230.691 13.7065ZM237.289 13.5L238.796 13.5L238.796 9.35596L240.154 9.35596L243.375 13.5L245.318 13.5L241.305 8.41113L245.265 3.68262L243.322 3.68262L239.794 7.94971L238.796 7.94971L238.796 3.68262L237.289 3.68262L237.289 13.5ZM252.3 7.18506L246.574 7.18506L246.574 8.59131L252.3 8.59131L252.3 7.18506ZM259.49 16.8486L260.997 16.8486L260.997 13.7065C263.656 13.7065 265.444 11.6851 265.444 8.64404C265.444 5.57227 263.656 3.55518 260.997 3.55518L260.997 0.408691L259.49 0.408691L259.49 3.55518C256.831 3.55518 255.038 5.57227 255.038 8.64404C255.038 11.6851 256.831 13.7065 259.49 13.7065L259.49 16.8486ZM260.997 12.3486L260.997 4.90869C263.018 4.90869 263.937 6.67529 263.937 8.64404C263.937 10.6128 263.018 12.3486 260.997 12.3486ZM259.49 12.3486C257.468 12.3486 256.55 10.6128 256.55 8.64404C256.55 6.67529 257.468 4.90869 259.49 4.90869L259.49 12.3486ZM271.178 13.7285C272.888 13.7285 273.784 12.8101 274.092 12.1685L274.167 12.1685L274.167 13.5L275.678 13.5L275.678 7.03125C275.678 3.91113 273.301 3.55518 272.044 3.55518C270.563 3.55518 268.875 4.06494 268.106 5.85352L269.539 6.36768C269.873 5.65137 270.66 4.88232 272.097 4.88232C273.485 4.88232 274.167 5.62061 274.167 6.87744L274.167 6.93018C274.167 7.65967 273.428 7.59375 271.635 7.82227C269.816 8.05957 267.825 8.46387 267.825 10.7139C267.825 12.6299 269.311 13.7285 271.178 13.7285ZM271.407 12.375C270.207 12.375 269.337 11.8389 269.337 10.7886C269.337 9.63721 270.383 9.28125 271.561 9.12744C272.198 9.05273 273.912 8.87256 274.167 8.56494L274.167 9.94482C274.167 11.1753 273.195 12.375 271.407 12.375ZM278.977 13.5L280.485 13.5L280.485 9.35596L281.842 9.35596L285.064 13.5L287.006 13.5L282.994 8.41113L286.953 3.68262L285.011 3.68262L281.482 7.94971L280.485 7.94971L280.485 3.68262L278.977 3.68262L278.977 13.5ZM288.619 5.08887L291.867 5.08887L291.867 13.5L293.374 13.5L293.374 5.08887L296.596 5.08887L296.596 3.68262L288.619 3.68262L288.619 5.08887ZM302.814 13.7065C305.473 13.7065 307.262 11.6851 307.262 8.64404C307.262 5.57227 305.473 3.55518 302.814 3.55518C300.156 3.55518 298.363 5.57227 298.363 8.64404C298.363 11.6851 300.156 13.7065 302.814 13.7065ZM302.814 12.3486C300.793 12.3486 299.875 10.6128 299.875 8.64404C299.875 6.67529 300.793 4.90869 302.814 4.90869C304.832 4.90869 305.754 6.67529 305.754 8.64404C305.754 10.6128 304.832 12.3486 302.814 12.3486ZM310.103 17.1826L311.61 17.1826L311.61 11.9927L311.742 11.9927C312.072 12.5288 312.713 13.7065 314.603 13.7065C317.059 13.7065 318.773 11.7378 318.773 8.61768C318.773 5.52393 317.059 3.55518 314.577 3.55518C312.661 3.55518 312.072 4.72852 311.742 5.24268L311.562 5.24268L311.562 3.68262L310.103 3.68262L310.103 17.1826ZM311.588 8.59131C311.588 6.39404 312.559 4.90869 314.401 4.90869C316.317 4.90869 317.262 6.52148 317.262 8.59131C317.262 10.6875 316.29 12.3486 314.401 12.3486C312.586 12.3486 311.588 10.8149 311.588 8.59131ZM324.503 13.7285C326.213 13.7285 327.109 12.8101 327.417 12.1685L327.492 12.1685L327.492 13.5L329.003 13.5L329.003 7.03125C329.003 3.91113 326.626 3.55518 325.369 3.55518C323.888 3.55518 322.201 4.06494 321.431 5.85352L322.864 6.36768C323.198 5.65137 323.985 4.88232 325.422 4.88232C326.81 4.88232 327.492 5.62061 327.492 6.87744L327.492 6.93018C327.492 7.65967 326.753 7.59375 324.96 7.82227C323.141 8.05957 321.15 8.46387 321.15 10.7139C321.15 12.6299 322.636 13.7285 324.503 13.7285ZM324.732 12.375C323.532 12.375 322.662 11.8389 322.662 10.7886C322.662 9.63721 323.708 9.28125 324.886 9.12744C325.523 9.05273 327.237 8.87256 327.492 8.56494L327.492 9.94482C327.492 11.1753 326.52 12.375 324.732 12.375ZM337.672 11.4565L334.297 3.68262L332.302 3.68262L332.302 13.5L333.81 13.5L333.81 5.84912L337.057 13.5L338.288 13.5L341.535 5.98975L341.535 13.5L343.042 13.5L343.042 3.68262L341.1 3.68262L337.672 11.4565ZM347.85 11.2764L347.85 3.68262L346.342 3.68262L346.342 13.5L348.109 13.5L352.811 5.90625L352.811 13.5L354.318 13.5L354.318 3.68262L352.582 3.68262L347.85 11.2764Z" fill="#000000" fill-opacity="1.000000" fill-rule="evenodd"/>
	</g>
</svg>
